<svg width="39" height="39" viewBox="0 0 39 39" fill="none" xmlns="http://www.w3.org/2000/svg">
<path d="M33.852 7.40187C34.0153 7.15715 34.1091 6.87269 34.1233 6.57884C34.1376 6.28499 34.0718 5.99278 33.9331 5.73338C33.7943 5.47398 33.5877 5.25713 33.3353 5.10595C33.0829 4.95478 32.7942 4.87496 32.5 4.875H6.50002C6.20608 4.87515 5.91769 4.95503 5.66556 5.10612C5.41342 5.25721 5.207 5.47386 5.06826 5.733C4.92952 5.99213 4.86367 6.28405 4.87771 6.57765C4.89176 6.87125 4.98517 7.15554 5.14802 7.40025L17.875 26.4924V32.5H13V35.75H26V32.5H21.125V26.4924L33.852 7.40187ZM29.4645 8.125L26.2145 13H12.7855L9.53552 8.125H29.4645Z" fill="#3F3F3F"/>
</svg>
