<svg width="39" height="39" viewBox="0 0 39 39" fill="none" xmlns="http://www.w3.org/2000/svg">
<path d="M9.75 30.1811C13.3347 30.1811 16.25 27.2659 16.25 23.6811V7.19549L30.875 12.5125V24.5862C29.8917 24.0004 28.7696 23.6879 27.625 23.6811C24.0402 23.6811 21.125 26.5964 21.125 30.1811C21.125 33.7659 24.0402 36.6811 27.625 36.6811C31.2097 36.6811 34.125 33.7659 34.125 30.1811V11.375C34.1252 11.0416 34.0227 10.7162 33.8314 10.4432C33.64 10.1701 33.3692 9.9627 33.0557 9.84911L15.1807 3.34911C14.9354 3.25941 14.672 3.23026 14.4129 3.26413C14.1538 3.29801 13.9068 3.39391 13.6927 3.5437C13.4786 3.69348 13.3039 3.89272 13.1833 4.12449C13.0627 4.35626 12.9998 4.61372 13 4.87499V18.0862C12.0167 17.5004 10.8946 17.1879 9.75 17.1811C6.16525 17.1811 3.25 20.0964 3.25 23.6811C3.25 27.2659 6.16525 30.1811 9.75 30.1811Z" fill="#3F3F3F"/>
</svg>
