<svg width="39" height="39" viewBox="0 0 39 39" fill="none" xmlns="http://www.w3.org/2000/svg">
<path d="M4.875 0C3.58207 0 2.34209 0.513615 1.42785 1.42785C0.513615 2.34209 0 3.58207 0 4.875L0 36.0579C5.12238e-05 36.2991 0.0716444 36.5348 0.205718 36.7353C0.339792 36.9357 0.53032 37.0919 0.753186 37.184C0.976052 37.2761 1.22124 37.3001 1.45771 37.2528C1.69419 37.2055 1.91132 37.0891 2.08162 36.9184L9.03581 29.9642C9.49283 29.507 10.1127 29.2501 10.7591 29.25H34.125C35.4179 29.25 36.6579 28.7364 37.5721 27.8221C38.4864 26.9079 39 25.6679 39 24.375V4.875C39 3.58207 38.4864 2.34209 37.5721 1.42785C36.6579 0.513615 35.4179 0 34.125 0L4.875 0ZM19.5 9.73294C23.556 5.56238 33.6984 12.8603 19.5 22.2422C5.30156 12.8578 15.444 5.56238 19.5 9.73294Z" fill="#3F3F3F"/>
</svg>
