<svg width="39" height="39" viewBox="0 0 39 39" fill="none" xmlns="http://www.w3.org/2000/svg">
<path d="M25.5938 20.7188C25.5938 22.3349 24.9517 23.8849 23.8089 25.0277C22.6661 26.1705 21.1162 26.8125 19.5 26.8125C17.8838 26.8125 16.3339 26.1705 15.1911 25.0277C14.0483 23.8849 13.4063 22.3349 13.4062 20.7188C13.4063 19.1026 14.0483 17.5526 15.1911 16.4098C16.3339 15.267 17.8838 14.625 19.5 14.625C21.1162 14.625 22.6661 15.267 23.8089 16.4098C24.9517 17.5526 25.5938 19.1026 25.5938 20.7188Z" fill="#3F3F3F"/>
<path d="M4.875 9.75C3.58207 9.75 2.34209 10.2636 1.42785 11.1779C0.513615 12.0921 0 13.3321 0 14.625L0 29.25C0 30.5429 0.513615 31.7829 1.42785 32.6971C2.34209 33.6114 3.58207 34.125 4.875 34.125H34.125C35.4179 34.125 36.6579 33.6114 37.5721 32.6971C38.4864 31.7829 39 30.5429 39 29.25V14.625C39 13.3321 38.4864 12.0921 37.5721 11.1779C36.6579 10.2636 35.4179 9.75 34.125 9.75H31.2682C29.9754 9.74972 28.7357 9.23593 27.8216 8.32162L25.8034 6.30337C24.8893 5.38907 23.6496 4.87528 22.3568 4.875H16.6432C15.3504 4.87528 14.1107 5.38907 13.1966 6.30337L11.1784 8.32162C10.2643 9.23593 9.02457 9.74972 7.73175 9.75H4.875ZM6.09375 14.625C5.77052 14.625 5.46052 14.4966 5.23196 14.268C5.0034 14.0395 4.875 13.7295 4.875 13.4062C4.875 13.083 5.0034 12.773 5.23196 12.5445C5.46052 12.3159 5.77052 12.1875 6.09375 12.1875C6.41698 12.1875 6.72698 12.3159 6.95554 12.5445C7.1841 12.773 7.3125 13.083 7.3125 13.4062C7.3125 13.7295 7.1841 14.0395 6.95554 14.268C6.72698 14.4966 6.41698 14.625 6.09375 14.625ZM28.0312 20.7188C28.0312 22.9814 27.1324 25.1513 25.5325 26.7513C23.9326 28.3512 21.7626 29.25 19.5 29.25C17.2374 29.25 15.0674 28.3512 13.4675 26.7513C11.8676 25.1513 10.9688 22.9814 10.9688 20.7188C10.9688 18.4561 11.8676 16.2862 13.4675 14.6862C15.0674 13.0863 17.2374 12.1875 19.5 12.1875C21.7626 12.1875 23.9326 13.0863 25.5325 14.6862C27.1324 16.2862 28.0312 18.4561 28.0312 20.7188Z" fill="#3F3F3F"/>
</svg>
