<svg width="39" height="39" viewBox="0 0 39 39" fill="none" xmlns="http://www.w3.org/2000/svg">
<g clip-path="url(#clip0_253_1528)">
<path d="M22.3445 10.9687C22.3445 11.7232 22.0448 12.4467 21.5114 12.9801C20.9779 13.5136 20.2544 13.8133 19.5 13.8133C18.7455 13.8133 18.022 13.5136 17.4885 12.9801C16.9551 12.4467 16.6554 11.7232 16.6554 10.9687C16.6554 10.2143 16.9551 9.49079 17.4885 8.95733C18.022 8.42387 18.7455 8.12418 19.5 8.12418C20.2544 8.12418 20.9779 8.42387 21.5114 8.95733C22.0448 9.49079 22.3445 10.2143 22.3445 10.9687Z" fill="#3F3F3F"/>
<path d="M19.5 0C14.3283 0 9.36838 2.05446 5.71142 5.71142C2.05446 9.36838 0 14.3283 0 19.5C0 24.6717 2.05446 29.6316 5.71142 33.2886C9.36838 36.9455 14.3283 39 19.5 39C24.6717 39 29.6316 36.9455 33.2886 33.2886C36.9455 29.6316 39 24.6717 39 19.5C39 14.3283 36.9455 9.36838 33.2886 5.71142C29.6316 2.05446 24.6717 0 19.5 0ZM2.4375 19.5C2.4375 14.9747 4.23515 10.6348 7.43499 7.43499C10.6348 4.23515 14.9747 2.4375 19.5 2.4375C21.7626 2.4375 23.9326 3.33633 25.5325 4.93624C27.1324 6.53616 28.0312 8.70612 28.0312 10.9688C28.0312 13.2314 27.1324 15.4013 25.5325 17.0013C23.9326 18.6012 21.7626 19.5 19.5 19.5C17.2374 19.5 15.0674 20.3988 13.4675 21.9987C11.8676 23.5987 10.9688 25.7686 10.9688 28.0312C10.9688 30.2939 11.8676 32.4638 13.4675 34.0638C15.0674 35.6637 17.2374 36.5625 19.5 36.5625C14.9747 36.5625 10.6348 34.7648 7.43499 31.565C4.23515 28.3652 2.4375 24.0253 2.4375 19.5ZM19.5 30.8758C18.7456 30.8758 18.0221 30.5761 17.4886 30.0427C16.9551 29.5092 16.6554 28.7857 16.6554 28.0312C16.6554 27.2768 16.9551 26.5533 17.4886 26.0198C18.0221 25.4864 18.7456 25.1867 19.5 25.1867C20.2544 25.1867 20.9779 25.4864 21.5114 26.0198C22.0449 26.5533 22.3446 27.2768 22.3446 28.0312C22.3446 28.7857 22.0449 29.5092 21.5114 30.0427C20.9779 30.5761 20.2544 30.8758 19.5 30.8758Z" fill="#3F3F3F"/>
</g>
<defs>
<clipPath id="clip0_253_1528">
<rect width="39" height="39" fill="white"/>
</clipPath>
</defs>
</svg>
