<svg width="39" height="39" viewBox="0 0 39 39" fill="none" xmlns="http://www.w3.org/2000/svg">
<path d="M20.7188 7.3125C14.7316 7.3125 9.66621 11.2353 7.94473 16.6436C10.5041 15.3486 13.391 14.625 16.4531 14.625H23.1562C23.8266 14.625 24.375 15.1734 24.375 15.8437C24.375 16.5141 23.8266 17.0625 23.1562 17.0625H21.9375H16.4531C15.1887 17.0625 13.9623 17.2072 12.774 17.4738C10.8012 17.9232 8.97305 18.723 7.33535 19.8123C2.91738 22.7602 0 27.7951 0 33.5156V34.7344C0 35.7475 0.815039 36.5625 1.82812 36.5625C2.84121 36.5625 3.65625 35.7475 3.65625 34.7344V33.5156C3.65625 29.8061 5.23301 26.4697 7.7543 24.1312C9.2625 29.8822 14.4955 34.125 20.7188 34.125H20.7949C30.8572 34.0717 39 24.1541 39 11.9285C39 8.68359 38.4287 5.59863 37.3928 2.81836C37.1947 2.29277 36.4254 2.31562 36.1588 2.81074C34.7268 5.49199 31.8932 7.3125 28.6406 7.3125H20.7188Z" fill="#3F3F3F"/>
</svg>
