<svg width="39" height="39" viewBox="0 0 39 39" fill="none" xmlns="http://www.w3.org/2000/svg">
<path d="M19.5 3.65625C19.5 2.68655 19.8852 1.75657 20.5709 1.07089C21.2566 0.385211 22.1865 0 23.1562 0C24.1259 0 25.0559 0.385211 25.7416 1.07089C26.4273 1.75657 26.8125 2.68655 26.8125 3.65625C26.8125 4.62595 26.4273 5.55593 25.7416 6.24161C25.0559 6.92729 24.1259 7.3125 23.1562 7.3125C22.1865 7.3125 21.2566 6.92729 20.5709 6.24161C19.8852 5.55593 19.5 4.62595 19.5 3.65625ZM23.4076 17.5729L21.9527 23.3848L25.7385 27.1705C26.424 27.8561 26.8125 28.7854 26.8125 29.7527V36.5625C26.8125 37.9107 25.7232 39 24.375 39C23.0268 39 21.9375 37.9107 21.9375 36.5625V30.2631L16.3084 24.634C15.1049 23.4305 14.6174 21.6938 15.0211 20.0408L16.575 13.6424C17.2072 11.0449 19.8275 9.46055 22.4174 10.108C23.8646 10.4736 25.1291 11.3572 25.9518 12.5988L28.115 15.8438H30.4687V14.0156C30.4687 13.0025 31.2838 12.1875 32.2969 12.1875C33.31 12.1875 34.125 13.0025 34.125 14.0156V18.266C34.125 18.2736 34.125 18.2812 34.125 18.2812V18.2965V37.1719C34.125 38.185 33.31 39 32.2969 39C31.2838 39 30.4687 38.185 30.4687 37.1719V20.7188H27.4676C26.2488 20.7188 25.1062 20.1094 24.4283 19.0887L23.4152 17.5652L23.4076 17.5729ZM11.0525 35.9455L13.81 25.4414C14.0385 25.7613 14.2975 26.066 14.5793 26.3479L17.7709 29.5395L15.76 37.1795C15.4172 38.482 14.0842 39.259 12.7816 38.9162C11.4791 38.5734 10.7021 37.2404 11.0449 35.9379L11.0525 35.9455ZM15.2801 9.59004L12.5988 20.2998C12.3703 21.2215 11.4639 21.8156 10.5269 21.6633L6.87832 21.0539C5.81191 20.8787 5.13398 19.8123 5.41582 18.7687L7.30488 11.8066C8.02851 9.15586 10.4355 7.3125 13.1853 7.3125H13.5053C14.6936 7.3125 15.5695 8.43223 15.2801 9.58242V9.59004Z" fill="#3F3F3F"/>
</svg>
