<svg width="39" height="39" viewBox="0 0 39 39" fill="none" xmlns="http://www.w3.org/2000/svg">
<path d="M37.0771 9.19481L33.1975 3.05367C32.8521 2.50523 32.236 2.16669 31.5792 2.16669H7.42089C6.76412 2.16669 6.14797 2.50523 5.80266 3.05367L1.9162 9.19481C-0.0879672 12.3636 1.68599 16.7714 5.43026 17.2792C5.7011 17.313 5.9787 17.3334 6.24953 17.3334C8.01672 17.3334 9.58755 16.5615 10.6641 15.3698C11.7407 16.5615 13.3115 17.3334 15.0787 17.3334C16.8459 17.3334 18.4167 16.5615 19.4933 15.3698C20.5698 16.5615 22.1407 17.3334 23.9079 17.3334C25.6818 17.3334 27.2459 16.5615 28.3225 15.3698C29.4058 16.5615 30.9698 17.3334 32.737 17.3334C33.0146 17.3334 33.2855 17.313 33.5563 17.2792C37.3141 16.7781 39.0948 12.3703 37.0839 9.19481H37.0771ZM33.8339 19.4255H33.8271C33.4683 19.4729 33.1027 19.5 32.7303 19.5C31.8907 19.5 31.085 19.3714 30.3334 19.1412V28.1667H8.66672V19.1344C7.90839 19.3714 7.09589 19.5 6.2563 19.5C5.88391 19.5 5.51151 19.4729 5.15266 19.4255H5.14589C4.86828 19.3849 4.59745 19.3375 4.33339 19.2698V28.1667V32.5C4.33339 34.8901 6.27662 36.8334 8.66672 36.8334H30.3334C32.7235 36.8334 34.6667 34.8901 34.6667 32.5V28.1667V19.2698C34.3959 19.3375 34.1251 19.3917 33.8339 19.4255Z" fill="#3F3F3F"/>
</svg>
