<svg width="39" height="39" viewBox="0 0 39 39" fill="none" xmlns="http://www.w3.org/2000/svg">
<path d="M8.66664 10.813C8.66664 7.238 11.5713 4.33331 15.1463 4.33331C18.4166 4.33331 21.1724 6.77081 21.5786 10.014L21.6463 10.5693C21.7953 11.7541 20.9557 12.8375 19.764 12.9864C18.5724 13.1354 17.4958 12.2958 17.3468 11.1041L17.2791 10.5489C17.1437 9.47238 16.2297 8.66665 15.1463 8.66665C13.9614 8.66665 13 9.6281 13 10.813V17.3333H26V10.813C26 7.238 28.9047 4.33331 32.4797 4.33331C35.75 4.33331 38.5057 6.77081 38.9119 10.014L38.9797 10.5693C39.1286 11.7541 38.289 12.8375 37.0974 12.9864C35.9057 13.1354 34.8291 12.2958 34.6802 11.1041L34.6125 10.5489C34.4771 9.47238 33.563 8.66665 32.4797 8.66665C31.2948 8.66665 30.3333 9.6281 30.3333 10.813V26.6094C30.225 26.6771 30.1099 26.7448 30.0083 26.8193C28.7896 27.6588 27.2932 28.1937 26 28.1937V21.6666H13V28.2005C11.7135 28.2005 10.2104 27.6656 8.99841 26.826C8.89007 26.7515 8.78174 26.6771 8.66664 26.6161V10.813ZM20.7526 28.5661C22.276 29.6156 24.138 30.3333 26 30.3333C27.8213 30.3333 29.751 29.6021 31.2406 28.5661C32.0463 27.9906 33.1432 28.038 33.8948 28.6812C34.8698 29.487 36.0953 30.1031 37.3208 30.3875C38.4854 30.6583 39.2099 31.8229 38.939 32.9875C38.6682 34.1521 37.5036 34.8765 36.339 34.6057C34.6802 34.2198 33.2989 33.4885 32.3984 32.913C30.4349 33.9693 28.2343 34.6666 26 34.6666C23.8401 34.6666 21.8968 33.9963 20.5562 33.387C20.1635 33.2041 19.8047 33.0281 19.5 32.8656C19.1953 33.0281 18.8432 33.2109 18.4437 33.387C17.1031 33.9963 15.1599 34.6666 13 34.6666C10.7656 34.6666 8.56507 33.9693 6.60153 32.9198C5.69424 33.4885 4.31976 34.2265 2.66091 34.6125C1.49632 34.8833 0.33174 34.1588 0.060907 32.9943C-0.209926 31.8297 0.514553 30.6651 1.67914 30.3943C2.90466 30.1099 4.13018 29.4937 5.10518 28.688C5.85674 28.0515 6.95362 28.0041 7.75934 28.5729C9.2557 29.6021 11.1786 30.3333 13 30.3333C14.8619 30.3333 16.7239 29.6156 18.2474 28.5661C18.9989 28.0312 20.001 28.0312 20.7526 28.5661Z" fill="#3F3F3F"/>
</svg>
