<svg width="39" height="39" viewBox="0 0 39 39" fill="none" xmlns="http://www.w3.org/2000/svg">
<path d="M35.1966 1.67578C26.1144 7.61597 14.8147 10.3127 1.37915 9.95711V11.3285C15.832 11.7033 27.9997 8.5864 37.6204 1.67578H35.1966ZM37.1668 4.37554L30.7586 7.89796L37.4852 12.545L37.1669 4.37554H37.1668ZM28.8254 8.7539L21.8148 10.8332L27.3993 16.8042L28.8254 8.75398V8.7539ZM19.0375 11.4573L11.8037 12.5281L16.4913 19.2264L19.0375 11.4573ZM8.88056 12.7039L1.57141 12.9262L5.44818 20.1242L8.88048 12.7039H8.88056ZM1.37915 21.2871V22.7086C19.0146 27.5284 29.4771 28.9026 37.637 29.1776V27.8065C29.5295 27.5325 19.1305 26.1601 1.37915 21.287V21.2871ZM4.68341 25.1904L6.51557 33.1582L11.7905 26.9119L4.68341 25.1904ZM16.1892 28.0461L18.4701 35.8971L23.3822 29.3617L16.1892 28.0461ZM27.8501 29.9082L30.9438 37.476L35.1417 30.4604L27.8501 29.9082Z" fill="#3F3F3F"/>
</svg>
