<svg width="40" height="40" viewBox="0 0 40 40" fill="none" xmlns="http://www.w3.org/2000/svg">
<path d="M18.6332 2.07904C18.1686 5.28588 16.5918 6.96927 13.7658 6.95404C16.1729 7.29681 18.6256 7.56342 18.6332 11.8344C18.5875 8.32285 20.4994 7.03021 23.5158 6.95404C20.6213 6.83978 18.5723 5.71244 18.6332 2.07904ZM28.368 2.96111C27.6748 4.04656 26.7836 4.58281 25.4049 3.74416C26.5399 4.64222 26.8217 5.63017 26.1818 6.71258C26.8598 5.86097 27.5149 4.98119 29.1525 5.93029C27.7967 5.164 27.7205 4.13492 28.368 2.96111ZM5.09595 3.6756C4.89028 5.10763 4.18188 5.85412 2.92505 5.8465C3.99907 5.99885 5.08833 6.12072 5.09595 8.01892C5.0731 6.4574 5.92622 5.87697 7.26685 5.8465C5.97954 5.79318 5.06548 5.29045 5.09595 3.6756ZM33.3801 5.54867C33.1744 6.9807 32.466 7.72719 31.2092 7.71957C32.2832 7.87191 33.3725 7.99379 33.3801 9.89199C33.3572 8.33047 34.2104 7.75004 35.551 7.71957C34.2637 7.66625 33.3496 7.16351 33.3801 5.54867ZM9.71349 9.3664C8.50997 13.4568 6.07552 13.0227 3.66925 12.6723C6.38478 13.4492 7.42833 15.5135 6.96978 18.7203C7.93411 15.2164 10.2162 14.7137 13.0193 15.4145C10.1553 14.4928 8.68517 12.718 9.71349 9.3664ZM23.9576 9.74726C23.2873 14.4395 20.9641 16.9074 16.8279 16.8846C20.3471 17.3797 23.9576 17.7758 23.9576 24.0219C23.8967 18.8955 26.6922 16.9988 31.1026 16.8846C26.875 16.717 23.8738 15.0641 23.9576 9.74726ZM34.3779 12.6646C33.3801 14.31 32.1309 14.8584 30.5922 14.1957C31.8338 14.9346 33.1059 15.6506 32.1233 17.9738C32.9078 16.0543 34.2484 15.7877 35.909 16.4504C34.3627 15.7115 33.502 14.6299 34.3779 12.6646ZM4.41192 19.025C5.10966 20.2971 4.99312 21.3178 3.9846 22.0719C4.9337 21.5463 5.87747 20.9826 7.02462 22.4984C6.06714 21.2644 6.40001 20.2895 7.45194 19.4516C6.39163 20.1904 5.3595 20.3352 4.41192 19.025ZM14.8627 19.0478C15.7311 21.0893 14.8246 22.1937 13.2098 22.925C14.9389 22.2775 16.3176 22.5822 17.0869 24.5779C16.1195 22.1557 17.4525 21.4396 18.7399 20.7008C17.1402 21.3482 15.8606 20.7693 14.8627 19.0478ZM32.2299 20.0076C30.2037 24.9359 26.9969 26.9926 22.4951 25.8271C26.1971 27.3353 30.0209 28.7598 28.3147 35.5695C29.6477 29.9557 33.2201 28.6607 38.057 29.7424C33.4943 28.4094 30.676 25.7814 32.2299 20.0076ZM8.16263 23.0088C9.35548 27.4115 8.22813 30.4812 4.55817 32.0352C7.8686 31.1363 11.2141 30.1156 13.5983 35.6457C11.5873 31.1287 13.3393 28.3789 17.2012 26.5965C13.3926 28.059 10.1096 27.7391 8.16263 23.0088ZM21.0631 27.6553C19.4025 29.2244 17.7877 29.4529 16.249 28.2113C17.4297 29.4529 18.6561 30.6793 16.7975 33.033C18.3057 31.083 19.9358 31.1973 21.6192 32.4769C20.0805 31.1516 19.4406 29.6205 21.0631 27.6553ZM34.3094 31.2734C34.1037 32.7055 33.3953 33.452 32.1385 33.4443C33.2125 33.5967 34.3018 33.7186 34.3094 35.6152C34.2865 34.0537 35.1397 33.4748 36.4803 33.4443C35.193 33.391 34.2789 32.8883 34.3094 31.2734ZM21.383 34.0156C21.1774 35.4477 20.469 36.1941 19.2121 36.1865C20.2861 36.3389 21.3754 36.4607 21.383 38.3574C21.3602 36.7959 22.2133 36.217 23.5539 36.1865C22.2666 36.1332 21.3525 35.6305 21.383 34.0156Z" fill="#3F3F3F"/>
</svg>
