<svg width="39" height="39" viewBox="0 0 39 39" fill="none" xmlns="http://www.w3.org/2000/svg">
<path d="M8.53125 0C4.49231 0 1.21875 3.81956 1.21875 8.53125C1.21875 12.5653 3.61969 15.9461 6.8445 16.8334L5.63306 36.5674C5.55019 37.9056 6.58125 39 7.92187 39H9.14062C10.4812 39 11.5099 37.9056 11.4294 36.5674L10.218 16.8334C13.4428 15.9437 15.8437 12.5653 15.8437 8.53125C15.8437 3.81956 12.5702 0 8.53125 0ZM33.1086 0L31.0781 12.1875H29.5547L28.5382 0H27.5218L26.5054 12.1875H24.9819L22.9515 0H21.9351V15.8438C21.9351 16.5165 22.4811 17.0625 23.1538 17.0625H26.3274L25.1306 36.5674C25.0477 37.9056 26.0788 39 27.4194 39H28.6382C29.9788 39 31.0074 37.9056 30.927 36.5674L29.7302 17.0625H32.9038C33.5766 17.0625 34.1226 16.5165 34.1226 15.8438V0H33.1061H33.1086Z" fill="#3F3F3F"/>
</svg>
