<svg width="39" height="39" viewBox="0 0 39 39" fill="none" xmlns="http://www.w3.org/2000/svg">
<path d="M16.25 8.40453C16.25 6.14578 13.6873 4.3534 10.5625 4.87503C5.97509 5.63878 3.87884 14.6348 4.06247 16.25C4.19247 17.3924 6.8656 19.0483 10.0035 17.875C12.0526 17.108 13.1885 15.5188 13.8125 13.8125" stroke="#3F3F3F" stroke-width="2.5" stroke-linecap="round" stroke-linejoin="round"/>
<path d="M23.1838 8.40453C23.1838 6.14578 25.7465 4.3534 28.8713 4.87503C33.4587 5.63878 35.555 14.6348 35.3713 16.25C35.2413 17.3924 32.5682 19.0483 29.4303 17.875C27.3812 17.108 26.416 15.5188 25.792 13.8125" stroke="#3F3F3F" stroke-width="2.5" stroke-linecap="round" stroke-linejoin="round"/>
<path d="M13 22.75V23.5625" stroke="#3F3F3F" stroke-width="2" stroke-linecap="round" stroke-linejoin="round"/>
<path d="M26 22.75V23.5625" stroke="#3F3F3F" stroke-width="2" stroke-linecap="round" stroke-linejoin="round"/>
<path d="M18.2812 26.4062H20.7188L19.5 27.625L18.2812 26.4062Z" stroke="#3F3F3F" stroke-width="2" stroke-linecap="round" stroke-linejoin="round"/>
<path d="M7.18251 18.2764C6.72772 20.0325 6.49838 21.8394 6.50001 23.6535C6.50001 30.433 12.3208 34.125 19.5 34.125C26.6793 34.125 32.5 30.433 32.5 23.6535C32.5 21.9294 32.2368 20.0785 31.6989 18.2764M16.679 8.39315C17.6081 8.2106 18.5531 8.12079 19.5 8.12502C20.7675 8.12502 21.9375 8.30052 23.0116 8.62227" stroke="#3F3F3F" stroke-width="2.5" stroke-linecap="round" stroke-linejoin="round"/>
</svg>
