<svg width="40" height="39" viewBox="0 0 40 39" fill="none" xmlns="http://www.w3.org/2000/svg">
<path d="M14.5156 21.9375C14.0335 21.9375 13.5623 21.7945 13.1614 21.5267C12.7606 21.2589 12.4482 20.8782 12.2637 20.4328C12.0792 19.9874 12.0309 19.4973 12.125 19.0245C12.219 18.5516 12.4512 18.1173 12.7921 17.7764C13.133 17.4355 13.5673 17.2034 14.0401 17.1093C14.5129 17.0153 15.003 17.0636 15.4484 17.248C15.8938 17.4325 16.2745 17.745 16.5423 18.1458C16.8102 18.5466 16.9531 19.0179 16.9531 19.5C16.9531 20.1465 16.6963 20.7665 16.2392 21.2236C15.7821 21.6807 15.1621 21.9375 14.5156 21.9375ZM25.4844 17.0625C25.0023 17.0625 24.531 17.2055 24.1302 17.4733C23.7293 17.7411 23.4169 18.1218 23.2324 18.5672C23.0479 19.0126 22.9997 19.5027 23.0937 19.9755C23.1878 20.4484 23.4199 20.8827 23.7608 21.2236C24.1017 21.5645 24.536 21.7966 25.0089 21.8907C25.4817 21.9847 25.9718 21.9364 26.4172 21.752C26.8626 21.5675 27.2433 21.255 27.5111 20.8542C27.7789 20.4534 27.9219 19.9821 27.9219 19.5C27.9219 18.8535 27.6651 18.2335 27.208 17.7764C26.7508 17.3193 26.1308 17.0625 25.4844 17.0625ZM23.2906 24.6568C22.3024 25.2694 21.1627 25.5939 20 25.5939C18.8373 25.5939 17.6977 25.2694 16.7094 24.6568C16.5063 24.5256 16.2792 24.436 16.0413 24.3932C15.8033 24.3503 15.5593 24.3551 15.3232 24.4072C15.0871 24.4594 14.8637 24.5578 14.6659 24.6969C14.4681 24.8359 14.2999 25.0128 14.171 25.2173C14.042 25.4218 13.9549 25.6499 13.9147 25.8883C13.8745 26.1267 13.8819 26.3707 13.9367 26.6062C13.9914 26.8417 14.0923 27.064 14.2335 27.2602C14.3747 27.4565 14.5535 27.6227 14.7594 27.7494C16.3315 28.73 18.1472 29.2498 20 29.2498C21.8529 29.2498 23.6685 28.73 25.2406 27.7494C25.4465 27.6227 25.6253 27.4565 25.7665 27.2602C25.9077 27.064 26.0086 26.8417 26.0634 26.6062C26.1181 26.3707 26.1256 26.1267 26.0853 25.8883C26.0451 25.6499 25.958 25.4218 25.8291 25.2173C25.7001 25.0128 25.5319 24.8359 25.3341 24.6969C25.1363 24.5578 24.9129 24.4594 24.6768 24.4072C24.4408 24.3551 24.1967 24.3503 23.9587 24.3932C23.7208 24.436 23.4937 24.5256 23.2906 24.6568ZM36.4531 19.5C36.4531 22.7541 35.4882 25.9352 33.6803 28.6409C31.8724 31.3466 29.3028 33.4554 26.2963 34.7007C23.2899 35.946 19.9818 36.2718 16.7902 35.637C13.5986 35.0021 10.6669 33.4351 8.36589 31.1341C6.06488 28.8331 4.49787 25.9014 3.86302 22.7098C3.22818 19.5183 3.554 16.2101 4.7993 13.2037C6.0446 10.1972 8.15344 7.62762 10.8591 5.81973C13.5648 4.01183 16.7459 3.04688 20 3.04688C24.3622 3.05171 28.5443 4.78672 31.6288 7.87123C34.7133 10.9557 36.4483 15.1378 36.4531 19.5ZM32.7969 19.5C32.7927 16.1604 31.4845 12.9546 29.151 10.5656C26.8175 8.17655 23.6432 6.79335 20.3047 6.71074C18.8635 8.87402 18.7813 10.8667 18.7813 10.9764C18.7823 11.2996 18.9116 11.6092 19.1409 11.837C19.2544 11.9499 19.3891 12.0392 19.5371 12.1C19.6852 12.1608 19.8438 12.1918 20.0038 12.1913C20.1639 12.1908 20.3222 12.1588 20.4699 12.0971C20.6176 12.0354 20.7517 11.9452 20.8645 11.8317C20.9773 11.7181 21.0667 11.5835 21.1274 11.4354C21.1882 11.2874 21.2193 11.1288 21.2188 10.9688C21.2188 10.4839 21.4114 10.0189 21.7542 9.67607C22.097 9.33323 22.562 9.14062 23.0469 9.14062C23.5317 9.14062 23.9967 9.33323 24.3396 9.67607C24.6824 10.0189 24.875 10.4839 24.875 10.9688C24.875 12.2617 24.3614 13.5017 23.4472 14.4159C22.5329 15.3301 21.2929 15.8438 20 15.8438C18.7071 15.8438 17.4671 15.3301 16.5529 14.4159C15.6386 13.5017 15.125 12.2617 15.125 10.9688C15.125 10.8728 15.1402 9.37219 15.8867 7.38562C13.6585 8.14197 11.682 9.49803 10.1744 11.3047C8.66689 13.1114 7.68666 15.2988 7.34153 17.6265C6.9964 19.9541 7.29972 22.3318 8.21816 24.4982C9.1366 26.6647 10.6346 28.5359 12.5474 29.9063C14.4603 31.2766 16.714 32.0931 19.0607 32.2658C21.4074 32.4385 23.7563 31.9608 25.8492 30.8853C27.9421 29.8097 29.6979 28.178 30.9236 26.1694C32.1493 24.1608 32.7975 21.8531 32.7969 19.5Z" fill="#3F3F3F"/>
</svg>
