<svg width="39" height="39" viewBox="0 0 39 39" fill="none" xmlns="http://www.w3.org/2000/svg">
<path d="M36.2424 39L0 2.75758L2.75758 0L39 36.2424L36.2424 39ZM24.8182 16.447L20.8788 12.5076V0.393939H32.697V8.27273H24.8182V16.447ZM16.9394 35.8485C14.7727 35.8485 12.9179 35.077 11.375 33.5341C9.83207 31.9912 9.06061 30.1364 9.06061 27.9697C9.06061 25.803 9.83207 23.9482 11.375 22.4053C12.9179 20.8624 14.7727 20.0909 16.9394 20.0909C17.6944 20.0909 18.392 20.1812 19.0322 20.3617C19.6723 20.5423 20.2879 20.8131 20.8788 21.1742V18.1212L24.8182 22.0606V27.9697C24.8182 30.1364 24.0467 31.9912 22.5038 33.5341C20.9609 35.077 19.1061 35.8485 16.9394 35.8485Z" fill="#3F3F3F"/>
</svg>
