<svg width="33" height="29" viewBox="0 0 33 29" xmlns="http://www.w3.org/2000/svg">
<path d="M18.1285 3.02181C18.1285 3.62585 17.8692 4.16855 17.4571 4.542V7.10083H24.1714C26.3964 7.10083 28.2 8.92708 28.2 11.1799V24.7766C28.2 27.0294 26.3964 28.8556 24.1714 28.8556H8.05713C5.83222 28.8556 4.02857 27.0294 4.02857 24.7766V11.1799C4.02857 8.92708 5.83222 7.10083 8.05713 7.10083H14.7714V4.542C14.3593 4.16855 14.1 3.62585 14.1 3.02181C14.1 1.89542 15.0018 0.9823 16.1143 0.9823C17.2267 0.9823 18.1285 1.89542 18.1285 3.02181ZM8.05713 9.82018C7.3155 9.82018 6.71428 10.4289 6.71428 11.1799V24.7766C6.71428 25.5275 7.3155 26.1363 8.05713 26.1363H24.1714C24.9131 26.1363 25.5143 25.5275 25.5143 24.7766V11.1799C25.5143 10.4289 24.9131 9.82018 24.1714 9.82018H17.4571H14.7714H8.05713ZM2.68571 13.8992H0V22.0573H2.68571V13.8992ZM29.5428 13.8992H32.2285V22.0573H29.5428V13.8992ZM12.0857 20.0177C13.1982 20.0177 14.1 19.1046 14.1 17.9782C14.1 16.8519 13.1982 15.9387 12.0857 15.9387C10.9732 15.9387 10.0714 16.8519 10.0714 17.9782C10.0714 19.1046 10.9732 20.0177 12.0857 20.0177ZM20.1428 20.0177C21.2553 20.0177 22.1571 19.1046 22.1571 17.9782C22.1571 16.8519 21.2553 15.9387 20.1428 15.9387C19.0304 15.9387 18.1285 16.8519 18.1285 17.9782C18.1285 19.1046 19.0304 20.0177 20.1428 20.0177Z" />
</svg>
