<svg width="41" height="41" viewBox="0 0 41 41" fill="none" xmlns="http://www.w3.org/2000/svg">
<rect width="40.4375" height="40.4375" rx="20.2188" fill="white"/>
<path d="M6 20.2188C6 28.0712 12.3663 34.4375 20.2188 34.4375C28.0712 34.4375 34.4375 28.0712 34.4375 20.2188C34.4375 12.3663 28.0712 6 20.2188 6C12.3663 6 6 12.3663 6 20.2188ZM20.5366 13.9734C20.6386 14.0746 20.7197 14.1949 20.7752 14.3274C20.8307 14.4599 20.8596 14.602 20.8601 14.7456C20.8607 14.8893 20.833 15.0317 20.7785 15.1646C20.7241 15.2975 20.644 15.4184 20.5428 15.5204L16.9662 19.125H26.0977C26.3877 19.125 26.6659 19.2402 26.8711 19.4454C27.0762 19.6505 27.1914 19.9287 27.1914 20.2188C27.1914 20.5088 27.0762 20.787 26.8711 20.9921C26.6659 21.1973 26.3877 21.3125 26.0977 21.3125H16.9662L20.5428 24.9171C20.6439 25.0192 20.724 25.1402 20.7784 25.2732C20.8328 25.4062 20.8605 25.5486 20.8599 25.6923C20.8593 25.836 20.8303 25.9782 20.7747 26.1108C20.7192 26.2433 20.638 26.3636 20.5359 26.4647C20.4339 26.5659 20.3129 26.646 20.1799 26.7004C20.0468 26.7548 19.9044 26.7825 19.7607 26.7819C19.617 26.7812 19.4748 26.7523 19.3423 26.6967C19.2097 26.6411 19.0895 26.56 18.9883 26.4579L13.5612 20.9892C13.3579 20.7843 13.2439 20.5074 13.2439 20.2188C13.2439 19.9301 13.3579 19.6532 13.5612 19.4483L18.9883 13.9796C19.0895 13.8774 19.2098 13.7961 19.3424 13.7405C19.4751 13.6849 19.6174 13.656 19.7612 13.6554C19.905 13.6548 20.0475 13.6826 20.1806 13.7372C20.3136 13.7918 20.4346 13.872 20.5366 13.9734Z" fill="#66CE94"/>
</svg>
