<svg width="25" height="28" viewBox="0 0 25 28" xmlns="http://www.w3.org/2000/svg">
<path d="M5.34003 12.665H8.01009V15.3351H5.34003V12.665ZM5.34003 18.0052H8.01009V20.6752H5.34003V18.0052ZM10.6802 12.665H13.3502V15.3351H10.6802V12.665ZM10.6802 18.0052H13.3502V20.6752H10.6802V18.0052ZM16.0203 12.665H18.6904V15.3351H16.0203V12.665ZM16.0203 18.0052H18.6904V20.6752H16.0203V18.0052Z" />
<path d="M2.67007 27.3301H21.3605C22.8331 27.3301 24.0306 26.1325 24.0306 24.66V5.96953C24.0306 4.49698 22.8331 3.29946 21.3605 3.29946H18.6905V0.629395H16.0204V3.29946H8.0102V0.629395H5.34013V3.29946H2.67007C1.19752 3.29946 0 4.49698 0 5.96953V24.66C0 26.1325 1.19752 27.3301 2.67007 27.3301ZM21.3605 8.63959L21.3619 24.66H2.67007V8.63959H21.3605Z" />
</svg>
