<svg width="21" height="21" viewBox="0 0 21 21" fill="none" xmlns="http://www.w3.org/2000/svg">
<path d="M0.34375 10.5C0.34375 16.1104 4.88965 20.6562 10.5 20.6562C16.1104 20.6562 20.6562 16.1104 20.6562 10.5C20.6562 4.88965 16.1104 0.34375 10.5 0.34375C4.88965 0.34375 0.34375 4.88965 0.34375 10.5ZM14.46 8.38086C14.8262 8.01465 15.4268 8.01465 15.793 8.38086C15.9785 8.56641 16.0664 8.80566 16.0664 9.04492C16.0664 9.28418 15.9736 9.52832 15.7881 9.71387L11.1836 14.3037C10.8125 14.6406 10.2412 14.6309 9.88477 14.2744L5.21191 9.61621C4.8457 9.25 4.84082 8.6543 5.21191 8.2832C5.57812 7.91699 6.17383 7.91211 6.54492 8.2832L10.5049 12.2822L14.46 8.38086Z" fill="#93E6F2"/>
</svg>
