<svg width="20" height="20" viewBox="0 0 20 20" fill="none" xmlns="http://www.w3.org/2000/svg">
<path d="M19.3536 7.19044L13.358 6.3236L10.6778 0.918161C10.6046 0.770163 10.4841 0.650355 10.3354 0.577531C9.96227 0.394296 9.50887 0.546992 9.32232 0.918161L6.64213 6.3236L0.646516 7.19044C0.481218 7.21393 0.330088 7.29145 0.214379 7.40891C0.0744931 7.55195 -0.00259025 7.74438 6.6464e-05 7.94392C0.00272317 8.14346 0.0849026 8.33379 0.228547 8.47309L4.56645 12.6804L3.5416 18.6215C3.51757 18.7597 3.53294 18.9018 3.58598 19.0318C3.63901 19.1617 3.72759 19.2743 3.84166 19.3567C3.95573 19.4391 4.09074 19.4881 4.23137 19.4981C4.37199 19.5081 4.51262 19.4786 4.63729 19.4132L10 16.6083L15.3628 19.4132C15.5092 19.4907 15.6792 19.5165 15.8422 19.4883C16.2531 19.4179 16.5293 19.0303 16.4585 18.6215L15.4336 12.6804L19.7715 8.47309C19.8896 8.35798 19.9675 8.20763 19.9912 8.04319C20.0549 7.63208 19.7668 7.25152 19.3536 7.19044Z" fill="#FEF5AA"/>
</svg>
