<svg width="33" height="32" viewBox="0 0 33 32" xmlns="http://www.w3.org/2000/svg">
<path d="M30.823 26.1146C30.0183 24.3183 28.8504 22.6866 27.3845 21.3106C25.9231 19.9305 24.1918 18.8302 22.2865 18.0704C22.2694 18.0623 22.2523 18.0583 22.2353 18.0503C24.8931 16.2412 26.6209 13.2945 26.6209 9.96985C26.6209 4.46231 21.8854 0 16.0408 0C10.1962 0 5.46077 4.46231 5.46077 9.96985C5.46077 13.2945 7.18856 16.2412 9.84637 18.0543C9.82931 18.0623 9.81224 18.0663 9.79518 18.0744C7.88395 18.8342 6.16895 19.9236 4.69713 21.3146C3.23261 22.6917 2.06494 24.3231 1.25862 26.1186C0.466491 27.8764 0.0392781 29.761 0.000106679 31.6704C-0.00103198 31.7133 0.00695436 31.7559 0.0235953 31.7959C0.0402363 31.8358 0.0651951 31.8723 0.0970011 31.903C0.128807 31.9337 0.166817 31.9581 0.20879 31.9748C0.250764 31.9914 0.295852 32 0.341398 32H2.90109C3.0888 32 3.23811 31.8593 3.24238 31.6864C3.3277 28.5829 4.65021 25.6764 6.98805 23.4734C9.40696 21.194 12.6194 19.9397 16.0408 19.9397C19.4623 19.9397 22.6747 21.194 25.0936 23.4734C27.4314 25.6764 28.7539 28.5829 28.8393 31.6864C28.8435 31.8633 28.9928 32 29.1805 32H31.7402C31.7858 32 31.8309 31.9914 31.8728 31.9748C31.9148 31.9581 31.9528 31.9337 31.9846 31.903C32.0164 31.8723 32.0414 31.8358 32.058 31.7959C32.0747 31.7559 32.0827 31.7133 32.0815 31.6704C32.0389 29.7487 31.6165 27.8794 30.823 26.1146ZM16.0408 16.8844C14.0827 16.8844 12.2397 16.1648 10.8532 14.8583C9.46668 13.5518 8.70304 11.8151 8.70304 9.96985C8.70304 8.12462 9.46668 6.38794 10.8532 5.08141C12.2397 3.77487 14.0827 3.05528 16.0408 3.05528C17.999 3.05528 19.842 3.77487 21.2285 5.08141C22.6149 6.38794 23.3786 8.12462 23.3786 9.96985C23.3786 11.8151 22.6149 13.5518 21.2285 14.8583C19.842 16.1648 17.999 16.8844 16.0408 16.8844Z" />
</svg>
