<svg width="15" height="14" viewBox="0 0 15 14" fill="none" xmlns="http://www.w3.org/2000/svg">
<path d="M7.02441 1.08203C7.17409 0.621379 7.82591 0.621373 7.97559 1.08203L8.93262 4.02832C9.13353 4.64615 9.70968 5.06443 10.3594 5.06445H13.457C13.9414 5.06445 14.1428 5.68405 13.751 5.96875L11.2451 7.79004C10.7194 8.17201 10.4994 8.84878 10.7002 9.4668L11.6572 12.4131C11.8069 12.8737 11.2796 13.2564 10.8877 12.9717L8.38184 11.1514C7.8561 10.7694 7.14389 10.7694 6.61816 11.1514L4.1123 12.9717C3.72045 13.2564 3.1931 12.8737 3.34277 12.4131L4.2998 9.4668C4.50061 8.84878 4.28059 8.17201 3.75488 7.79004L1.24902 5.96875C0.85717 5.68405 1.0586 5.06445 1.54297 5.06445H4.64062C5.29032 5.06443 5.86647 4.64615 6.06738 4.02832L7.02441 1.08203Z" stroke="#FFEB34"/>
</svg>
