<svg width="21" height="21" viewBox="0 0 21 21" fill="none" xmlns="http://www.w3.org/2000/svg">
<path d="M20.6562 10.5C20.6563 4.88965 16.1104 0.34375 10.5 0.34375C4.88965 0.34375 0.34375 4.88965 0.34375 10.5C0.34375 16.1104 4.88965 20.6562 10.5 20.6562C16.1104 20.6562 20.6562 16.1104 20.6562 10.5ZM6.54004 12.6191C6.17383 12.9854 5.57324 12.9854 5.20703 12.6191C5.02148 12.4336 4.93359 12.1943 4.93359 11.9551C4.93359 11.7158 5.02637 11.4717 5.21192 11.2861L9.81641 6.69629C10.1875 6.35937 10.7588 6.36914 11.1152 6.72559L15.7881 11.3838C16.1543 11.75 16.1592 12.3457 15.7881 12.7168C15.4219 13.083 14.8262 13.0879 14.4551 12.7168L10.4951 8.71777L6.54004 12.6191Z" fill="#93E6F2"/>
</svg>
